<?xml version="1.0" encoding="iso-8859-1"?>
<!-- Generator: Adobe Illustrator 19.0.0, SVG Export Plug-In . SVG Version: 6.00 Build 0)  -->
<svg version="1.1" id="Layer_1" xmlns="http://www.w3.org/2000/svg" xmlns:xlink="http://www.w3.org/1999/xlink" x="0px" y="0px"
	 viewBox="0 0 500 500" style="enable-background:new 0 0 500 500;" xml:space="preserve">
<g>
	<g>
		<path d="M250,0C153.048,0,74.172,78.884,74.172,175.832c0,58.488,28.916,112.912,77.392,145.716
			c0.14,0.132,0.292,0.256,0.452,0.38c0.572,0.412,1.132,0.824,1.688,1.244C174,338.4,187.748,360.02,191.448,382.496V438.6
			c0,22.808,15.612,41.992,35.132,47.584v1.48c0,6.456,5.744,12.336,12.2,12.336h22.844c6.456,0,11.8-5.88,11.8-12.336v-1.6
			c19.52-5.756,35.132-24.824,35.132-47.464v-56.196c3.912-23.168,18.228-45.208,39.364-60.36c0.096-0.08,0.196-0.208,0.288-0.28
			c48.628-32.796,77.62-87.276,77.62-145.904C425.828,78.912,346.952,0,250,0z M331.812,190.16l-47.508,184.92h-24.18l38.3-148.972
			c-1.664,0.432-3.428,0.644-5.424,0.644c-11.54,0-17.324-8.416-20.436-12.912c-0.34-0.496-0.764-1.136-1.176-1.7
			c-0.412,0.564-0.832,1.16-1.176,1.656c-3.104,4.496-8.892,12.844-20.428,12.844c-11.536,0-17.32-8.368-20.42-12.86
			c-0.344-0.492-0.756-1.092-1.164-1.652c-0.4,0.56-0.816,1.16-1.156,1.652c-3.108,4.492-8.896,12.86-20.432,12.86
			c-1.644,0-3.14-0.208-4.56-0.512l38.244,148.948h-24.184l-47.516-184.692c-1.612-6.26,2.16-12.76,8.42-14.376
			c6.284-1.608,12.644,2.108,14.26,8.368l1.188,4.584c6.744,2.536,10.628,8.116,12.976,11.52c0.344,0.492,0.756,1.084,1.164,1.636
			c0.408-0.552,0.824-1.16,1.164-1.652c3.104-4.492,8.892-12.86,20.428-12.86s17.32,8.364,20.42,12.86
			c0.336,0.492,0.756,1.092,1.164,1.648c0.404-0.556,0.82-1.156,1.164-1.652c3.104-4.492,8.896-12.856,20.432-12.856
			s17.324,8.36,20.436,12.852c0.344,0.5,0.768,1.108,1.176,1.672c0.412-0.564,0.836-1.172,1.18-1.672
			c2.444-3.528,6.584-9.392,13.824-11.76l1.128-4.376c1.608-6.264,8-10.036,14.256-8.42
			C329.656,177.512,333.424,183.9,331.812,190.16z"/>
	</g>
</g>
<g>
</g>
<g>
</g>
<g>
</g>
<g>
</g>
<g>
</g>
<g>
</g>
<g>
</g>
<g>
</g>
<g>
</g>
<g>
</g>
<g>
</g>
<g>
</g>
<g>
</g>
<g>
</g>
<g>
</g>
</svg>
